<svg xmlns="http://www.w3.org/2000/svg" xmlns:xlink="http://www.w3.org/1999/xlink" viewBox="0,0,256,256" width="50px" height="50px"><g fill="#20c997" fill-rule="nonzero" stroke="none" stroke-width="1" stroke-linecap="butt" stroke-linejoin="miter" stroke-miterlimit="10" stroke-dasharray="" stroke-dashoffset="0" font-family="none" font-weight="none" font-size="none" text-anchor="none" style="mix-blend-mode: normal"><g transform="scale(5.12,5.12)"><path d="M30.46875,3.15625l-0.43359,1.57813c-0.42969,1.58203 -2.99609,9.85938 -5.06641,14.69922c-1.02734,-2.42187 -2.15234,-5.11719 -3.23047,-7.80859c-1.375,-3.4375 -2.48437,-6.28125 -2.82812,-7.03906l-0.60156,-1.33594l-1.02734,1.05469c-1.68359,1.73047 -4.23437,4.34766 -4.23437,4.34766l-0.59375,0.60938l0.50781,0.68359c0.99219,1.33594 2.92578,4.58203 4.61719,7.69531c0.33984,0.62109 0.58203,1.13672 0.89453,1.73438c-2.83984,-3.15234 -5.66016,-6.51172 -6.64844,-7.94141l-0.67969,-0.98047l-0.84766,0.83594c0,0 -1.85156,1.83203 -3.00781,3.00781l-0.58594,0.59375l0.47656,0.68359c0.18359,0.26172 0.45703,0.59766 0.83984,1.1875c0.38281,0.58984 0.84375,1.38672 1.29297,2.40625c0.89453,2.03906 1.72656,4.94922 1.6875,8.82031c-0.04297,4.01953 -2.61719,9.55078 -3.84375,11.47656l-0.42969,0.67578l5.47656,5.47656l0.65625,-1.10547c3.8125,-6.4375 4.36328,-13.35937 4.07422,-18.23437c1.83594,1.70703 4.06641,3.77344 5.06641,4.72266v9c0,1.23047 -0.23437,3.3125 -1.08984,4.37109l-1.31641,1.62891h11.09375l-1.54297,-1.67578c-0.98437,-1.07422 -1.14453,-3.17187 -1.14453,-4.32422v-3.09375c1.99609,1.90234 7.51563,7.17188 9.32422,8.82813l0.70703,0.65234l4.26172,-4.26172l-0.46484,-0.6875c-0.66016,-0.96875 -1.45703,-3.40625 -1.98437,-6.14062c-0.52344,-2.72656 -0.83984,-5.80469 -0.84375,-8.28516c0.11719,-5.09766 2.46094,-9.61719 3.80078,-11.41406l0.57422,-0.76562l-0.74219,-0.60547c-0.54297,-0.44141 -2.33203,-2.11719 -3.11719,-2.83203l-0.85547,-0.77734l-0.64453,0.96094c-3.28906,4.89844 -6.14844,11.32422 -4.37891,22.58984c-0.64062,-0.66016 -0.92969,-0.95312 -1.69531,-1.73437c-1.53516,-1.57422 -2.95312,-2.97656 -3.9375,-3.79687c0.00391,-0.16797 0,-0.23828 0.01172,-0.51562c0.01563,-0.49219 0.09766,-1.09766 0.125,-1.19922c1.70313,-4.50391 5.9375,-12.91406 8.73828,-16.50391l0.54297,-0.69922l-0.625,-0.625c-1.61328,-1.61328 -5.12109,-4.82812 -5.12109,-4.82812zM17.64453,6.79688c0.46094,1.12891 1.13672,2.8125 2.24219,5.57031c1.37891,3.44531 2.97656,7.39062 4.14844,10.03906l0.26172,0.59375h1.36328l0.27734,-0.54297c2.14453,-4.14844 4.62891,-12.41797 5.54688,-15.625c0.87891,0.80859 2.08203,1.92578 3.33594,3.14453c-3.05859,4.1875 -6.86719,11.76562 -8.57031,16.27734l-0.01562,0.05469c-0.18359,0.58594 -0.19531,1.17969 -0.21875,1.73438c-0.02344,0.55469 -0.01562,1.01953 -0.01562,1.01953l0.00781,0.48438l0.38281,0.29297c0.60547,0.46484 2.44141,2.26953 4.12109,3.98828c1.67969,1.72266 3.23438,3.36328 3.80078,3.89844l2.375,2.24609l-0.71094,-3.19141c-2.70312,-12.16797 -0.10937,-18.09375 3.10156,-23.08203c0.59766,0.55469 1.13281,1.03906 1.68359,1.52344c-1.59375,2.36328 -3.64453,6.55469 -3.76172,11.75781v0.01953c0,2.65234 0.33203,5.81641 0.87891,8.67578c0.47656,2.47266 1.11328,4.55469 1.93359,6.09375l-1.83203,1.83594c-2.67969,-2.49609 -10.29297,-9.74609 -10.29297,-9.74609l-1.6875,-1.60937v7.75c0,0.88672 0.01172,2.48828 0.64063,4h-3.45312c0.57422,-1.46484 0.8125,-2.98828 0.8125,-4v-9.85937l-0.30859,-0.29687c-1.19531,-1.14453 -6.01172,-5.59766 -7.25391,-6.76172l-2.04687,-1.91406l0.375,2.78125c0.55859,4.13672 0.43359,11.56641 -3.08203,18.32031l-2.47656,-2.47656c1.48438,-2.50781 3.74609,-7.32812 3.79297,-11.78125c0.04297,-4.17187 -0.86328,-7.38281 -1.85937,-9.64844c-0.49609,-1.12891 -1.01172,-2.02734 -1.44531,-2.69141c-0.19141,-0.29687 -0.24609,-0.35547 -0.39062,-0.5625c0.71094,-0.71484 1.17969,-1.18359 1.61328,-1.60937c2.08984,2.84766 6.89453,8.70703 10.33203,11.71875l2.29688,2.01172l-0.66016,-2.98437c-0.17578,-0.78125 -0.625,-1.78516 -1.25391,-3.10156c-0.62891,-1.31641 -1.4375,-2.875 -2.29297,-4.45703c-1.55859,-2.86719 -3.15625,-5.50781 -4.32422,-7.1875c0.36719,-0.37891 1.44531,-1.48828 2.62891,-2.70312z"></path></g></g></svg>